<?xml version="1.0" encoding="utf-8"?>
<!-- Generator: Adobe Illustrator 16.0.0, SVG Export Plug-In . SVG Version: 6.00 Build 0)  -->
<!DOCTYPE svg PUBLIC "-//W3C//DTD SVG 1.1//EN" "http://www.w3.org/Graphics/SVG/1.1/DTD/svg11.dtd">
<svg version="1.1" id="Warstwa_1" xmlns="http://www.w3.org/2000/svg" xmlns:xlink="http://www.w3.org/1999/xlink" x="0px" y="0px"
	 width="314.992px" height="64.829px" viewBox="0 0 314.992 64.829" enable-background="new 0 0 314.992 64.829"
	 xml:space="preserve">
<path fill="#004867" d="M65.969,51.264v12.411h-8.662c-3.278,0-5.926-0.629-7.947-1.879c-2.028-1.25-3.576-2.971-4.645-5.18
	l-8.481-17.677h-9.558v24.736H11.672V13.692H0V1.116h26.661v0.047h0.016v25.271h10.36c1.721,0,3.317-0.354,4.779-1.069
	c1.454-0.715,2.602-1.792,3.435-3.214c0.833-1.431,1.25-3.097,1.25-5.007V1.163h15.005v16.074c0,3.985-0.951,7.562-2.861,10.713
	c-1.902,3.16-4.401,5.691-7.499,7.593l6.783,14.289c0.181,0.472,0.496,0.834,0.943,1.069c0.448,0.236,0.936,0.362,1.47,0.362
	L65.969,51.264L65.969,51.264z"/>
<path fill="#004867" d="M76.06,63.673V1.161h26.88c4.227,0,8.066,0.953,11.52,2.857c3.452,1.906,6.221,4.541,8.305,7.904
	c2.083,3.364,3.125,7.249,3.125,11.654c0,4.406-1.042,8.32-3.125,11.743c-2.084,3.424-4.853,6.087-8.305,7.993
	c-3.454,1.906-7.293,2.858-11.52,2.858H91.063v17.503H76.06z M91.063,33.578h10.181c1.726,0,3.318-0.386,4.778-1.161
	c1.458-0.773,2.634-1.905,3.527-3.394c0.893-1.487,1.339-3.273,1.339-5.358c0-2.083-0.446-3.869-1.339-5.358
	c-0.893-1.487-2.069-2.634-3.527-3.438c-1.459-0.803-3.052-1.205-4.778-1.205H91.063V33.578z"/>
<path fill="#004867" d="M165.718,63.673c-3.809,0-7.158-0.85-10.044-2.545c-2.889-1.695-5.15-3.975-6.788-6.832
	c-1.638-2.858-2.456-6.042-2.456-9.555V13.664h-16.968V1.161h48.849v12.502h-16.878V46.08c0,1.371,0.477,2.561,1.429,3.572
	c0.952,1.013,2.144,1.518,3.573,1.518h4.912v12.503H165.718z"/>
<path fill="#004867" d="M185.098,63.673V1.161h15.003v25.272h10.357c1.728,0,3.318-0.357,4.778-1.071
	c1.457-0.715,2.604-1.786,3.437-3.216c0.834-1.428,1.252-3.095,1.252-5V1.161h15.002v16.075c0,3.989-0.951,7.561-2.856,10.716
	c-1.907,3.156-4.407,5.686-7.502,7.59l6.786,14.289c0.18,0.477,0.491,0.834,0.938,1.072c0.447,0.239,0.938,0.357,1.475,0.357h5.626
	v12.414h-8.662c-3.274,0-5.925-0.625-7.948-1.876c-2.023-1.25-3.572-2.975-4.644-5.18l-8.483-17.682c-0.478,0-0.924,0-1.34,0
	s-0.863,0-1.339,0h-6.876v24.737H185.098z"/>
<path fill="#004867" d="M314.992,0.149h-34.844V0.22C278.75,0.071,277.303,0,275.826,0c-5,0-9.527,0.817-13.574,2.453
	c-4.049,1.643-7.53,3.946-10.446,6.924c-2.916,2.979-5.164,6.414-6.743,10.313c-1.572,3.899-2.367,8.112-2.367,12.639
	s0.795,8.748,2.367,12.678c1.579,3.93,3.827,7.38,6.743,10.36c2.916,2.978,6.397,5.298,10.446,6.963
	c4.047,1.667,8.574,2.499,13.574,2.499c4.942,0,9.455-0.832,13.533-2.499c4.072-1.666,7.563-3.985,10.445-6.963
	c2.887-2.979,5.135-6.43,6.744-10.36c1.605-3.93,2.414-8.151,2.414-12.678s-0.811-8.74-2.414-12.639
	c-1.037-2.515-2.342-4.833-3.914-6.964h12.355V0.149H314.992z M292.623,40.141c-0.896,2.414-2.146,4.512-3.758,6.296
	c-1.605,1.784-3.521,3.167-5.762,4.15c-2.232,0.982-4.652,1.478-7.277,1.478c-2.674,0-5.117-0.495-7.318-1.478
	c-2.209-0.983-4.127-2.366-5.762-4.15c-1.635-1.785-2.885-3.883-3.75-6.296c-0.863-2.413-1.295-5.015-1.295-7.813
	c0-2.798,0.432-5.392,1.295-7.773c0.865-2.374,2.115-4.465,3.75-6.249c1.635-1.784,3.553-3.167,5.762-4.15
	c2.201-0.982,4.646-1.478,7.318-1.478c2.625,0,5.045,0.495,7.277,1.478c2.24,0.982,4.157,2.366,5.762,4.15
	c1.61,1.784,2.861,3.875,3.758,6.249c0.887,2.381,1.336,4.975,1.336,7.773C293.958,35.126,293.509,37.729,292.623,40.141z"/>
</svg>
