<?xml version="1.0" encoding="utf-8"?>
<!-- Generator: Adobe Illustrator 16.0.0, SVG Export Plug-In . SVG Version: 6.00 Build 0)  -->
<!DOCTYPE svg PUBLIC "-//W3C//DTD SVG 1.1//EN" "http://www.w3.org/Graphics/SVG/1.1/DTD/svg11.dtd">
<svg version="1.1" id="Warstwa_1" xmlns="http://www.w3.org/2000/svg" xmlns:xlink="http://www.w3.org/1999/xlink" x="0px" y="0px"
	 width="314.991px" height="105.244px" viewBox="0 0 314.991 105.244" enable-background="new 0 0 314.991 105.244"
	 xml:space="preserve">
<g>
	<g>
		<path fill="#004867" d="M13.481,81.026h0.471c0.188,0,0.345-0.024,0.47-0.078c0.124-0.051,0.231-0.135,0.321-0.248l2.979-3.757
			c0.125-0.159,0.255-0.269,0.392-0.331c0.137-0.062,0.31-0.094,0.519-0.094h1.732l-3.636,4.473
			c-0.114,0.138-0.224,0.255-0.328,0.348c-0.105,0.095-0.216,0.172-0.336,0.231c0.164,0.06,0.313,0.143,0.444,0.252
			c0.132,0.11,0.26,0.249,0.385,0.417l3.748,5.035h-1.776c-0.239,0-0.417-0.033-0.534-0.1c-0.118-0.067-0.215-0.165-0.295-0.294
			l-3.054-3.973c-0.1-0.129-0.213-0.222-0.337-0.278c-0.125-0.057-0.301-0.086-0.53-0.086h-0.634v4.73h-2.009V76.513h2.009V81.026z"
			/>
		<path fill="#004867" d="M26.175,85.661c0.389,0,0.736-0.065,1.042-0.194c0.307-0.129,0.565-0.31,0.777-0.543
			c0.212-0.232,0.373-0.516,0.486-0.848c0.111-0.331,0.167-0.703,0.167-1.115v-6.442h2.009v6.442c0,0.639-0.104,1.231-0.31,1.773
			c-0.207,0.543-0.504,1.013-0.892,1.405c-0.389,0.395-0.859,0.702-1.411,0.924c-0.553,0.22-1.175,0.33-1.868,0.33
			c-0.691,0-1.313-0.11-1.866-0.33c-0.553-0.222-1.022-0.529-1.407-0.924c-0.387-0.393-0.682-0.862-0.888-1.405
			c-0.208-0.542-0.311-1.135-0.311-1.773v-6.442h2.009v6.435c0,0.413,0.056,0.783,0.167,1.116c0.112,0.331,0.273,0.616,0.482,0.852
			c0.208,0.234,0.466,0.417,0.772,0.546C25.439,85.596,25.787,85.661,26.175,85.661z"/>
		<path fill="#004867" d="M37.048,83.452c0,0.605-0.075,1.15-0.225,1.635c-0.149,0.487-0.372,0.9-0.668,1.242
			c-0.297,0.344-0.666,0.606-1.109,0.789c-0.443,0.184-0.958,0.275-1.545,0.275c-0.269,0-0.533-0.017-0.792-0.048
			c-0.258-0.032-0.529-0.084-0.813-0.152L32,86.003c0.01-0.108,0.051-0.197,0.124-0.265c0.072-0.066,0.177-0.101,0.317-0.101
			c0.084,0,0.195,0.019,0.332,0.053c0.137,0.034,0.31,0.051,0.519,0.051c0.284,0,0.536-0.04,0.754-0.122
			c0.219-0.081,0.402-0.212,0.549-0.391c0.146-0.179,0.258-0.41,0.332-0.694c0.075-0.286,0.112-0.631,0.112-1.038v-6.978h2.009
			V83.452z"/>
		<path fill="#004867" d="M48.331,87.274h-1.553c-0.174,0-0.317-0.044-0.43-0.129c-0.111-0.087-0.192-0.196-0.242-0.325
			l-0.807-2.192h-4.473L40.02,86.82c-0.04,0.115-0.118,0.219-0.236,0.313c-0.116,0.095-0.26,0.142-0.428,0.142h-1.561l4.241-10.756
			h2.054L48.331,87.274z M41.341,83.213h3.442l-1.314-3.576c-0.06-0.16-0.125-0.347-0.197-0.563
			c-0.073-0.216-0.144-0.449-0.213-0.702c-0.07,0.253-0.139,0.488-0.205,0.707c-0.068,0.218-0.134,0.409-0.199,0.571L41.341,83.213z
			"/>
		<path fill="#004867" d="M47.682,76.519h1.688c0.173,0,0.319,0.043,0.437,0.123c0.116,0.082,0.195,0.192,0.235,0.331l1.836,6.435
			c0.045,0.159,0.086,0.331,0.124,0.516c0.038,0.187,0.074,0.385,0.108,0.593c0.04-0.208,0.084-0.406,0.131-0.593
			c0.048-0.185,0.099-0.356,0.153-0.516l2.122-6.435c0.039-0.113,0.118-0.218,0.236-0.313c0.116-0.093,0.259-0.142,0.429-0.142
			h0.589c0.175,0,0.319,0.043,0.434,0.123c0.114,0.082,0.194,0.192,0.239,0.331l2.105,6.435c0.109,0.317,0.204,0.669,0.285,1.056
			c0.034-0.193,0.07-0.38,0.107-0.559c0.037-0.177,0.076-0.343,0.116-0.497l1.836-6.435c0.035-0.123,0.112-0.229,0.231-0.318
			c0.12-0.09,0.264-0.136,0.433-0.136h1.576l-3.353,10.756h-1.815l-2.359-7.349c-0.03-0.093-0.061-0.196-0.093-0.305
			s-0.063-0.226-0.093-0.35c-0.03,0.124-0.061,0.241-0.094,0.35c-0.032,0.108-0.063,0.212-0.093,0.305l-2.382,7.349h-1.814
			L47.682,76.519z"/>
		<path fill="#004867" d="M70.097,78.476c-0.055,0.108-0.118,0.187-0.19,0.23c-0.073,0.045-0.158,0.066-0.258,0.066
			c-0.099,0-0.211-0.037-0.336-0.115c-0.124-0.076-0.271-0.161-0.441-0.256c-0.169-0.094-0.367-0.18-0.593-0.257
			c-0.227-0.076-0.494-0.115-0.803-0.115c-0.279,0-0.522,0.033-0.728,0.1c-0.207,0.068-0.381,0.16-0.523,0.279
			c-0.142,0.12-0.248,0.263-0.317,0.428c-0.07,0.167-0.105,0.349-0.105,0.548c0,0.253,0.071,0.463,0.213,0.632
			c0.142,0.169,0.33,0.313,0.563,0.431c0.234,0.12,0.5,0.226,0.799,0.32c0.299,0.096,0.604,0.194,0.916,0.302
			c0.31,0.105,0.615,0.23,0.914,0.371c0.299,0.142,0.565,0.32,0.799,0.536c0.234,0.215,0.422,0.479,0.563,0.791
			c0.143,0.313,0.213,0.692,0.213,1.138c0,0.487-0.083,0.942-0.25,1.366c-0.167,0.423-0.411,0.793-0.732,1.108
			c-0.32,0.314-0.712,0.563-1.175,0.743c-0.463,0.182-0.994,0.271-1.591,0.271c-0.344,0-0.682-0.034-1.015-0.101
			c-0.334-0.067-0.653-0.161-0.96-0.286c-0.306-0.124-0.593-0.272-0.858-0.445c-0.266-0.175-0.504-0.367-0.714-0.581l0.583-0.96
			c0.055-0.068,0.121-0.127,0.198-0.174s0.164-0.071,0.258-0.071c0.125,0,0.258,0.051,0.404,0.152
			c0.143,0.103,0.314,0.214,0.511,0.339c0.197,0.124,0.429,0.237,0.695,0.338c0.266,0.102,0.586,0.153,0.96,0.153
			c0.571,0,1.014-0.136,1.328-0.406s0.471-0.657,0.471-1.164c0-0.283-0.071-0.513-0.213-0.691s-0.33-0.328-0.564-0.449
			s-0.5-0.226-0.798-0.309c-0.299-0.085-0.603-0.176-0.912-0.276c-0.309-0.099-0.612-0.217-0.911-0.357
			c-0.298-0.138-0.564-0.318-0.798-0.542s-0.422-0.502-0.564-0.837s-0.213-0.747-0.213-1.237c0-0.393,0.078-0.774,0.235-1.146
			c0.156-0.371,0.386-0.702,0.687-0.99c0.301-0.287,0.671-0.518,1.108-0.691c0.439-0.172,0.938-0.26,1.501-0.26
			c0.638,0,1.225,0.1,1.763,0.297c0.538,0.199,0.996,0.478,1.374,0.833L70.097,78.476z"/>
		<path fill="#004867" d="M74.398,81.026h0.47c0.189,0,0.346-0.024,0.47-0.078c0.124-0.051,0.231-0.135,0.321-0.248l2.979-3.757
			c0.125-0.159,0.255-0.269,0.392-0.331c0.138-0.062,0.31-0.094,0.519-0.094h1.732l-3.636,4.473
			c-0.115,0.138-0.224,0.255-0.329,0.348c-0.104,0.095-0.216,0.172-0.335,0.231c0.164,0.06,0.313,0.143,0.444,0.252
			c0.131,0.11,0.26,0.249,0.384,0.417l3.748,5.035h-1.777c-0.239,0-0.417-0.033-0.533-0.1c-0.118-0.067-0.216-0.165-0.295-0.294
			l-3.055-3.973c-0.099-0.129-0.211-0.222-0.335-0.278c-0.125-0.057-0.301-0.086-0.53-0.086h-0.634v4.73H72.39V76.513h2.009V81.026z
			"/>
		<path fill="#004867" d="M92.88,81.896c0,0.79-0.132,1.519-0.396,2.191c-0.264,0.672-0.634,1.253-1.113,1.744
			c-0.478,0.491-1.052,0.873-1.725,1.148c-0.672,0.275-1.417,0.413-2.232,0.413c-0.817,0-1.563-0.138-2.236-0.413
			c-0.675-0.275-1.253-0.657-1.733-1.148c-0.48-0.491-0.852-1.072-1.116-1.744c-0.264-0.673-0.396-1.401-0.396-2.191
			c0-0.788,0.132-1.519,0.396-2.189c0.264-0.672,0.635-1.253,1.116-1.744c0.48-0.491,1.058-0.874,1.733-1.15
			c0.674-0.274,1.419-0.412,2.236-0.412c0.815,0,1.56,0.14,2.232,0.417c0.673,0.278,1.247,0.66,1.725,1.148
			c0.479,0.488,0.849,1.069,1.113,1.741C92.748,80.378,92.88,81.108,92.88,81.896z M90.819,81.896c0-0.589-0.079-1.119-0.235-1.587
			c-0.157-0.47-0.382-0.867-0.675-1.193c-0.294-0.328-0.652-0.578-1.073-0.752c-0.42-0.173-0.894-0.26-1.422-0.26
			c-0.528,0-1.003,0.087-1.426,0.26c-0.424,0.174-0.783,0.424-1.079,0.752c-0.297,0.326-0.525,0.724-0.683,1.193
			c-0.159,0.468-0.239,0.998-0.239,1.587c0,0.591,0.08,1.121,0.239,1.588c0.158,0.47,0.386,0.866,0.683,1.19
			c0.296,0.326,0.655,0.574,1.079,0.748c0.423,0.173,0.898,0.26,1.426,0.26c0.528,0,1.002-0.087,1.422-0.26
			c0.421-0.174,0.778-0.422,1.073-0.748c0.293-0.324,0.518-0.721,0.675-1.19C90.74,83.018,90.819,82.487,90.819,81.896z"/>
		<path fill="#004867" d="M94.118,82.017h3.869v1.532h-3.869V82.017z"/>
		<path fill="#004867" d="M101.899,83.487v3.787h-2.008V76.519h3.517c0.721,0,1.346,0.086,1.874,0.254
			c0.528,0.169,0.963,0.404,1.307,0.707c0.343,0.302,0.597,0.664,0.762,1.085c0.164,0.423,0.246,0.883,0.246,1.385
			c0,0.521-0.087,0.998-0.261,1.432c-0.175,0.434-0.437,0.807-0.784,1.119c-0.349,0.313-0.784,0.555-1.307,0.729
			c-0.523,0.174-1.135,0.259-1.837,0.259H101.899z M101.899,81.927h1.509c0.368,0,0.689-0.046,0.963-0.138
			c0.273-0.091,0.5-0.224,0.679-0.395c0.179-0.171,0.314-0.379,0.403-0.625c0.089-0.245,0.135-0.519,0.135-0.82
			c0-0.288-0.045-0.549-0.135-0.781c-0.089-0.233-0.224-0.431-0.403-0.596c-0.178-0.164-0.405-0.289-0.679-0.375
			c-0.274-0.087-0.595-0.13-0.963-0.13h-1.509V81.927z"/>
		<path fill="#004867" d="M119.514,81.896c0,0.79-0.131,1.519-0.395,2.191c-0.264,0.672-0.635,1.253-1.112,1.744
			c-0.478,0.491-1.053,0.873-1.725,1.148c-0.672,0.275-1.417,0.413-2.232,0.413c-0.817,0-1.563-0.138-2.237-0.413
			c-0.675-0.275-1.252-0.657-1.732-1.148c-0.48-0.491-0.853-1.072-1.117-1.744c-0.264-0.673-0.395-1.401-0.395-2.191
			c0-0.788,0.131-1.519,0.395-2.189c0.264-0.672,0.636-1.253,1.117-1.744c0.48-0.491,1.058-0.874,1.732-1.15
			c0.674-0.274,1.42-0.412,2.237-0.412c0.816,0,1.56,0.14,2.232,0.417c0.672,0.278,1.247,0.66,1.725,1.148
			c0.478,0.488,0.848,1.069,1.112,1.741C119.383,80.378,119.514,81.108,119.514,81.896z M117.454,81.896
			c0-0.589-0.079-1.119-0.235-1.587c-0.156-0.47-0.382-0.867-0.675-1.193c-0.294-0.328-0.651-0.578-1.072-0.752
			c-0.42-0.173-0.895-0.26-1.422-0.26c-0.528,0-1.004,0.087-1.426,0.26c-0.423,0.174-0.783,0.424-1.079,0.752
			c-0.296,0.326-0.525,0.724-0.684,1.193c-0.159,0.468-0.239,0.998-0.239,1.587c0,0.591,0.08,1.121,0.239,1.588
			c0.159,0.47,0.387,0.866,0.684,1.19c0.296,0.326,0.656,0.574,1.079,0.748c0.422,0.173,0.898,0.26,1.426,0.26
			c0.527,0,1.001-0.087,1.422-0.26c0.42-0.174,0.778-0.422,1.072-0.748c0.293-0.324,0.519-0.721,0.675-1.19
			C117.375,83.018,117.454,82.487,117.454,81.896z"/>
		<path fill="#004867" d="M126.754,83.307c0.072,0.17,0.143,0.343,0.213,0.518c0.069-0.179,0.142-0.354,0.216-0.529
			c0.076-0.173,0.154-0.338,0.24-0.499l3.196-5.957c0.04-0.074,0.081-0.134,0.123-0.179c0.042-0.043,0.089-0.076,0.142-0.096
			c0.051-0.021,0.11-0.033,0.175-0.038s0.142-0.008,0.231-0.008h1.516v10.756h-1.77v-6.946c0-0.129,0.003-0.27,0.011-0.424
			s0.019-0.312,0.034-0.47l-3.264,6.099c-0.074,0.14-0.171,0.247-0.291,0.325c-0.119,0.076-0.259,0.115-0.418,0.115h-0.276
			c-0.159,0-0.299-0.039-0.418-0.115c-0.119-0.078-0.216-0.186-0.292-0.325l-3.308-6.12c0.02,0.163,0.034,0.323,0.042,0.48
			c0.007,0.155,0.011,0.3,0.011,0.435v6.946h-1.77V76.519h1.516c0.089,0,0.167,0.003,0.232,0.008
			c0.064,0.005,0.123,0.018,0.175,0.038c0.053,0.02,0.102,0.053,0.146,0.096c0.044,0.045,0.087,0.104,0.127,0.179l3.227,5.974
			C126.604,82.971,126.682,83.136,126.754,83.307z"/>
		<path fill="#004867" d="M145.343,81.896c0,0.79-0.132,1.519-0.396,2.191c-0.264,0.672-0.635,1.253-1.113,1.744
			c-0.478,0.491-1.052,0.873-1.725,1.148s-1.417,0.413-2.232,0.413c-0.816,0-1.562-0.138-2.236-0.413
			c-0.676-0.275-1.253-0.657-1.733-1.148c-0.48-0.491-0.853-1.072-1.117-1.744c-0.263-0.673-0.395-1.401-0.395-2.191
			c0-0.788,0.132-1.519,0.395-2.189c0.264-0.672,0.637-1.253,1.117-1.744c0.48-0.491,1.057-0.874,1.733-1.15
			c0.674-0.274,1.419-0.412,2.236-0.412c0.816,0,1.56,0.14,2.232,0.417c0.672,0.278,1.247,0.66,1.725,1.148
			c0.478,0.488,0.849,1.069,1.113,1.741C145.211,80.378,145.343,81.108,145.343,81.896z M143.282,81.896
			c0-0.589-0.078-1.119-0.235-1.587c-0.157-0.47-0.381-0.867-0.675-1.193c-0.294-0.328-0.65-0.578-1.071-0.752
			c-0.421-0.173-0.896-0.26-1.422-0.26c-0.528,0-1.003,0.087-1.427,0.26c-0.423,0.174-0.782,0.424-1.078,0.752
			c-0.297,0.326-0.525,0.724-0.684,1.193c-0.16,0.468-0.239,0.998-0.239,1.587c0,0.591,0.079,1.121,0.239,1.588
			c0.159,0.47,0.386,0.866,0.684,1.19c0.296,0.326,0.655,0.574,1.078,0.748c0.423,0.173,0.899,0.26,1.427,0.26
			c0.527,0,1.001-0.087,1.422-0.26c0.421-0.174,0.777-0.422,1.071-0.748c0.294-0.324,0.519-0.721,0.675-1.19
			C143.204,83.018,143.282,82.487,143.282,81.896z"/>
		<path fill="#004867" d="M149.002,83.071v4.203h-2.009V76.519h3.293c0.737,0,1.368,0.076,1.893,0.228
			c0.525,0.152,0.955,0.364,1.292,0.637c0.336,0.272,0.583,0.599,0.739,0.979c0.158,0.379,0.235,0.797,0.235,1.253
			c0,0.361-0.053,0.703-0.16,1.026c-0.107,0.321-0.262,0.614-0.463,0.877s-0.45,0.494-0.747,0.691
			c-0.296,0.199-0.633,0.357-1.012,0.478c0.253,0.143,0.473,0.35,0.657,0.617l2.703,3.971h-1.807c-0.174,0-0.323-0.035-0.444-0.104
			c-0.123-0.068-0.226-0.167-0.31-0.296l-2.271-3.444c-0.084-0.129-0.178-0.222-0.28-0.275c-0.101-0.055-0.252-0.083-0.451-0.083
			H149.002z M149.002,81.637h1.255c0.378,0,0.708-0.047,0.989-0.141c0.281-0.096,0.512-0.225,0.694-0.391
			c0.182-0.166,0.317-0.363,0.407-0.592c0.09-0.228,0.135-0.479,0.135-0.751c0-0.546-0.181-0.965-0.542-1.258
			c-0.361-0.292-0.912-0.438-1.654-0.438h-1.285V81.637z"/>
		<path fill="#004867" d="M162.495,78.476c-0.055,0.108-0.118,0.187-0.19,0.23c-0.072,0.045-0.158,0.066-0.258,0.066
			s-0.212-0.037-0.336-0.115c-0.124-0.076-0.27-0.161-0.44-0.256c-0.169-0.094-0.367-0.18-0.592-0.257
			c-0.228-0.076-0.495-0.115-0.803-0.115c-0.279,0-0.522,0.033-0.729,0.1c-0.207,0.068-0.38,0.16-0.522,0.279
			c-0.142,0.12-0.248,0.263-0.317,0.428c-0.07,0.167-0.104,0.349-0.104,0.548c0,0.253,0.071,0.463,0.212,0.632
			c0.142,0.169,0.331,0.313,0.564,0.431c0.234,0.12,0.5,0.226,0.798,0.32c0.299,0.096,0.605,0.194,0.916,0.302
			c0.311,0.105,0.616,0.23,0.915,0.371c0.299,0.142,0.565,0.32,0.8,0.536c0.233,0.215,0.422,0.479,0.563,0.791
			s0.211,0.692,0.211,1.138c0,0.487-0.082,0.942-0.25,1.366c-0.166,0.423-0.41,0.793-0.731,1.108
			c-0.321,0.314-0.714,0.563-1.177,0.743c-0.463,0.182-0.992,0.271-1.589,0.271c-0.344,0-0.682-0.034-1.016-0.101
			c-0.334-0.067-0.653-0.161-0.959-0.286c-0.306-0.124-0.592-0.272-0.859-0.445c-0.266-0.175-0.503-0.367-0.713-0.581l0.583-0.96
			c0.055-0.068,0.121-0.127,0.197-0.174c0.078-0.047,0.164-0.071,0.258-0.071c0.125,0,0.259,0.051,0.404,0.152
			c0.144,0.103,0.313,0.214,0.511,0.339c0.197,0.124,0.428,0.237,0.695,0.338c0.266,0.102,0.586,0.153,0.959,0.153
			c0.572,0,1.015-0.136,1.329-0.406s0.47-0.657,0.47-1.164c0-0.283-0.071-0.513-0.213-0.691c-0.141-0.179-0.33-0.328-0.563-0.449
			c-0.234-0.121-0.5-0.226-0.798-0.309c-0.299-0.085-0.603-0.176-0.911-0.276c-0.309-0.099-0.613-0.217-0.912-0.357
			c-0.299-0.138-0.564-0.318-0.799-0.542c-0.234-0.224-0.422-0.502-0.563-0.837c-0.143-0.335-0.213-0.747-0.213-1.237
			c0-0.393,0.078-0.774,0.235-1.146c0.157-0.371,0.385-0.702,0.687-0.99c0.301-0.287,0.67-0.518,1.108-0.691
			c0.438-0.172,0.938-0.26,1.501-0.26c0.637,0,1.225,0.1,1.762,0.297c0.538,0.199,0.997,0.478,1.374,0.833L162.495,78.476z"/>
		<path fill="#004867" d="M166.795,81.026h0.472c0.189,0,0.346-0.024,0.469-0.078c0.126-0.051,0.233-0.135,0.322-0.248l2.978-3.757
			c0.125-0.159,0.256-0.269,0.395-0.331c0.134-0.062,0.309-0.094,0.518-0.094h1.733l-3.637,4.473
			c-0.113,0.138-0.226,0.255-0.33,0.348c-0.104,0.095-0.215,0.172-0.334,0.231c0.164,0.06,0.312,0.143,0.444,0.252
			c0.131,0.11,0.259,0.249,0.384,0.417l3.749,5.035h-1.777c-0.24,0-0.418-0.033-0.535-0.1c-0.118-0.067-0.214-0.165-0.295-0.294
			l-3.054-3.973c-0.1-0.129-0.209-0.222-0.334-0.278s-0.303-0.086-0.531-0.086h-0.636v4.73h-2.006V76.513h2.006V81.026z"/>
		<path fill="#004867" d="M177.406,87.274h-2.017V76.519h2.017V87.274z"/>
		<path fill="#004867" d="M186.644,76.519v1.594h-4.787v2.982h3.771v1.539h-3.771v3.041h4.787v1.6h-6.811V76.519H186.644z"/>
		<path fill="#004867" d="M198.874,76.519v1.645h-3.247v9.111h-2.009v-9.111h-3.262v-1.645H198.874z"/>
		<path fill="#004867" d="M209.926,81.896c0,0.79-0.132,1.519-0.396,2.191c-0.263,0.672-0.636,1.253-1.112,1.744
			c-0.478,0.491-1.053,0.873-1.724,1.148c-0.673,0.275-1.417,0.413-2.232,0.413c-0.817,0-1.563-0.138-2.237-0.413
			c-0.674-0.275-1.252-0.657-1.732-1.148c-0.479-0.491-0.853-1.072-1.116-1.744c-0.263-0.673-0.396-1.401-0.396-2.191
			c0-0.788,0.133-1.519,0.396-2.189c0.264-0.672,0.637-1.253,1.116-1.744c0.48-0.491,1.059-0.874,1.732-1.15
			c0.675-0.274,1.42-0.412,2.237-0.412c0.815,0,1.56,0.14,2.232,0.417c0.671,0.278,1.246,0.66,1.724,1.148
			c0.477,0.488,0.85,1.069,1.112,1.741C209.794,80.378,209.926,81.108,209.926,81.896z M207.865,81.896
			c0-0.589-0.078-1.119-0.235-1.587c-0.157-0.47-0.383-0.867-0.677-1.193c-0.293-0.328-0.65-0.578-1.068-0.752
			c-0.423-0.173-0.897-0.26-1.424-0.26c-0.527,0-1.004,0.087-1.427,0.26c-0.425,0.174-0.784,0.424-1.08,0.752
			c-0.295,0.326-0.522,0.724-0.682,1.193c-0.161,0.468-0.24,0.998-0.24,1.587c0,0.591,0.079,1.121,0.24,1.588
			c0.16,0.47,0.387,0.866,0.682,1.19c0.296,0.326,0.655,0.574,1.08,0.748c0.423,0.173,0.899,0.26,1.427,0.26
			c0.526,0,1.001-0.087,1.424-0.26c0.418-0.174,0.775-0.422,1.068-0.748c0.294-0.324,0.52-0.721,0.677-1.19
			C207.787,83.018,207.865,82.487,207.865,81.896z"/>
		<path fill="#004867" d="M210.508,76.519h1.689c0.172,0,0.319,0.043,0.438,0.123c0.115,0.082,0.193,0.192,0.232,0.331l1.838,6.435
			c0.043,0.159,0.086,0.331,0.124,0.516c0.037,0.187,0.073,0.385,0.107,0.593c0.039-0.208,0.084-0.406,0.131-0.593
			c0.047-0.185,0.098-0.356,0.152-0.516l2.121-6.435c0.039-0.113,0.119-0.218,0.237-0.313c0.114-0.093,0.258-0.142,0.428-0.142
			h0.589c0.174,0,0.319,0.043,0.434,0.123c0.114,0.082,0.194,0.192,0.24,0.331l2.104,6.435c0.108,0.317,0.204,0.669,0.284,1.056
			c0.034-0.193,0.07-0.38,0.107-0.559c0.038-0.177,0.077-0.343,0.116-0.497l1.838-6.435c0.034-0.123,0.111-0.229,0.229-0.318
			c0.121-0.09,0.266-0.136,0.434-0.136h1.575l-3.352,10.756h-1.813l-2.36-7.349c-0.03-0.093-0.063-0.196-0.093-0.305
			c-0.033-0.108-0.065-0.226-0.095-0.35c-0.029,0.124-0.061,0.241-0.094,0.35s-0.063,0.212-0.093,0.305l-2.382,7.349h-1.814
			L210.508,76.519z"/>
		<path fill="#004867" d="M235.747,87.274h-1.553c-0.174,0-0.316-0.044-0.429-0.129c-0.113-0.087-0.193-0.196-0.243-0.325
			l-0.808-2.192h-4.471l-0.808,2.192c-0.041,0.115-0.119,0.219-0.234,0.313c-0.119,0.095-0.261,0.142-0.43,0.142h-1.562
			l4.241-10.756h2.054L235.747,87.274z M228.758,83.213h3.441l-1.313-3.576c-0.059-0.16-0.126-0.347-0.197-0.563
			s-0.144-0.449-0.212-0.702c-0.071,0.253-0.14,0.488-0.207,0.707c-0.066,0.218-0.131,0.409-0.197,0.571L228.758,83.213z"/>
		<path fill="#004867" d="M238.935,83.071v4.203h-2.007V76.519h3.291c0.738,0,1.369,0.076,1.895,0.228
			c0.524,0.152,0.955,0.364,1.29,0.637c0.338,0.272,0.584,0.599,0.74,0.979c0.157,0.379,0.235,0.797,0.235,1.253
			c0,0.361-0.054,0.703-0.16,1.026c-0.108,0.321-0.261,0.614-0.463,0.877s-0.451,0.494-0.747,0.691
			c-0.296,0.199-0.634,0.357-1.012,0.478c0.255,0.143,0.472,0.35,0.657,0.617l2.702,3.971h-1.806c-0.176,0-0.323-0.035-0.444-0.104
			c-0.122-0.068-0.226-0.167-0.311-0.296l-2.27-3.444c-0.086-0.129-0.179-0.222-0.28-0.275c-0.102-0.055-0.253-0.083-0.451-0.083
			H238.935z M238.935,81.637h1.256c0.378,0,0.706-0.047,0.988-0.141c0.282-0.096,0.514-0.225,0.693-0.391
			c0.184-0.166,0.319-0.363,0.409-0.592c0.089-0.228,0.133-0.479,0.133-0.751c0-0.546-0.179-0.965-0.542-1.258
			c-0.359-0.292-0.911-0.438-1.653-0.438h-1.284V81.637z"/>
		<path fill="#004867" d="M254.354,76.519v0.737c0,0.229-0.063,0.437-0.193,0.625l-5.542,7.794h5.602v1.6h-8.206v-0.788
			c0-0.1,0.018-0.194,0.052-0.286c0.035-0.092,0.08-0.177,0.136-0.256l5.554-7.832h-5.391v-1.594H254.354z"/>
		<path fill="#004867" d="M260.657,83.095v4.18h-2.008v-4.18l-3.936-6.576h1.769c0.175,0,0.315,0.044,0.415,0.128
			c0.101,0.084,0.188,0.191,0.259,0.32l1.978,3.592c0.116,0.213,0.214,0.415,0.3,0.605c0.084,0.191,0.161,0.378,0.231,0.562
			c0.064-0.188,0.138-0.378,0.219-0.569c0.084-0.19,0.182-0.39,0.296-0.598l1.965-3.592c0.055-0.11,0.137-0.212,0.245-0.307
			c0.11-0.093,0.249-0.142,0.419-0.142h1.777L260.657,83.095z"/>
		<path fill="#004867" d="M271.417,78.476c-0.054,0.108-0.117,0.187-0.19,0.23c-0.071,0.045-0.157,0.066-0.258,0.066
			c-0.099,0-0.211-0.037-0.335-0.115c-0.125-0.076-0.271-0.161-0.441-0.256c-0.17-0.094-0.367-0.18-0.594-0.257
			c-0.226-0.076-0.494-0.115-0.803-0.115c-0.279,0-0.521,0.033-0.729,0.1c-0.206,0.068-0.38,0.16-0.521,0.279
			c-0.143,0.12-0.248,0.263-0.317,0.428c-0.07,0.167-0.104,0.349-0.104,0.548c0,0.253,0.07,0.463,0.213,0.632
			s0.329,0.313,0.563,0.431c0.233,0.12,0.501,0.226,0.798,0.32c0.301,0.096,0.605,0.194,0.915,0.302
			c0.313,0.105,0.617,0.23,0.915,0.371c0.3,0.142,0.565,0.32,0.8,0.536c0.233,0.215,0.422,0.479,0.563,0.791
			s0.211,0.692,0.211,1.138c0,0.487-0.082,0.942-0.248,1.366c-0.168,0.423-0.412,0.793-0.732,1.108
			c-0.321,0.314-0.713,0.563-1.176,0.743c-0.462,0.182-0.993,0.271-1.59,0.271c-0.343,0-0.683-0.034-1.017-0.101
			c-0.332-0.067-0.652-0.161-0.959-0.286c-0.306-0.124-0.592-0.272-0.858-0.445c-0.268-0.175-0.504-0.367-0.714-0.581l0.583-0.96
			c0.054-0.068,0.122-0.127,0.197-0.174c0.078-0.047,0.164-0.071,0.258-0.071c0.125,0,0.259,0.051,0.404,0.152
			c0.144,0.103,0.313,0.214,0.51,0.339c0.197,0.124,0.429,0.237,0.695,0.338c0.266,0.102,0.586,0.153,0.959,0.153
			c0.573,0,1.017-0.136,1.33-0.406c0.313-0.271,0.471-0.657,0.471-1.164c0-0.283-0.072-0.513-0.215-0.691
			c-0.141-0.179-0.328-0.328-0.562-0.449c-0.235-0.121-0.501-0.226-0.801-0.309c-0.297-0.085-0.603-0.176-0.91-0.276
			c-0.309-0.099-0.612-0.217-0.911-0.357c-0.298-0.138-0.564-0.318-0.799-0.542s-0.422-0.502-0.563-0.837
			c-0.143-0.335-0.213-0.747-0.213-1.237c0-0.393,0.078-0.774,0.235-1.146c0.156-0.371,0.387-0.702,0.688-0.99
			c0.302-0.287,0.669-0.518,1.107-0.691c0.438-0.172,0.939-0.26,1.502-0.26c0.637,0,1.224,0.1,1.761,0.297
			c0.538,0.199,0.997,0.478,1.375,0.833L271.417,78.476z"/>
		<path fill="#004867" d="M281.25,76.519v1.645h-3.246v9.111h-2.01v-9.111h-3.264v-1.645H281.25z"/>
		<path fill="#004867" d="M281.529,76.519h1.686c0.176,0,0.32,0.043,0.437,0.123c0.118,0.082,0.195,0.192,0.237,0.331l1.835,6.435
			c0.046,0.159,0.086,0.331,0.124,0.516c0.038,0.187,0.073,0.385,0.108,0.593c0.039-0.208,0.082-0.406,0.13-0.593
			c0.047-0.185,0.099-0.356,0.153-0.516l2.121-6.435c0.039-0.113,0.117-0.218,0.235-0.313c0.117-0.093,0.261-0.142,0.429-0.142h0.59
			c0.176,0,0.317,0.043,0.434,0.123c0.114,0.082,0.194,0.192,0.239,0.331l2.106,6.435c0.108,0.317,0.203,0.669,0.282,1.056
			c0.037-0.193,0.071-0.38,0.108-0.559c0.037-0.177,0.075-0.343,0.115-0.497l1.837-6.435c0.035-0.123,0.112-0.229,0.233-0.318
			c0.119-0.09,0.263-0.136,0.432-0.136h1.576l-3.354,10.756h-1.815l-2.358-7.349c-0.03-0.093-0.062-0.196-0.093-0.305
			c-0.033-0.108-0.063-0.226-0.094-0.35c-0.03,0.124-0.062,0.241-0.093,0.35c-0.032,0.108-0.063,0.212-0.094,0.305l-2.383,7.349
			h-1.813L281.529,76.519z"/>
		<path fill="#004867" d="M308.514,81.896c0,0.79-0.132,1.519-0.395,2.191c-0.266,0.672-0.635,1.253-1.113,1.744
			c-0.479,0.491-1.054,0.873-1.726,1.148c-0.671,0.275-1.415,0.413-2.232,0.413c-0.816,0-1.563-0.138-2.236-0.413
			c-0.675-0.275-1.252-0.657-1.733-1.148c-0.479-0.491-0.852-1.072-1.113-1.744c-0.267-0.673-0.397-1.401-0.397-2.191
			c0-0.788,0.131-1.519,0.397-2.189c0.262-0.672,0.634-1.253,1.113-1.744c0.481-0.491,1.059-0.874,1.733-1.15
			c0.674-0.274,1.42-0.412,2.236-0.412c0.817,0,1.562,0.14,2.232,0.417c0.672,0.278,1.246,0.66,1.726,1.148
			c0.479,0.488,0.848,1.069,1.113,1.741C308.382,80.378,308.514,81.108,308.514,81.896z M306.453,81.896
			c0-0.589-0.08-1.119-0.235-1.587c-0.157-0.47-0.382-0.867-0.675-1.193c-0.295-0.328-0.652-0.578-1.073-0.752
			c-0.421-0.173-0.894-0.26-1.422-0.26s-1.002,0.087-1.427,0.26c-0.423,0.174-0.782,0.424-1.078,0.752
			c-0.297,0.326-0.523,0.724-0.684,1.193c-0.159,0.468-0.239,0.998-0.239,1.587c0,0.591,0.08,1.121,0.239,1.588
			c0.16,0.47,0.387,0.866,0.684,1.19c0.296,0.326,0.655,0.574,1.078,0.748c0.425,0.173,0.898,0.26,1.427,0.26
			s1.001-0.087,1.422-0.26c0.421-0.174,0.778-0.422,1.073-0.748c0.293-0.324,0.518-0.721,0.675-1.19
			C306.373,83.018,306.453,82.487,306.453,81.896z"/>
		<path fill="#004867" d="M13.481,98.876h0.471c0.188,0,0.345-0.024,0.47-0.077c0.124-0.052,0.231-0.135,0.321-0.249l2.979-3.756
			c0.125-0.158,0.255-0.27,0.392-0.331c0.137-0.063,0.31-0.094,0.519-0.094h1.732l-3.636,4.472
			c-0.114,0.139-0.224,0.255-0.328,0.348c-0.105,0.096-0.216,0.173-0.336,0.232c0.164,0.059,0.313,0.143,0.444,0.251
			c0.132,0.111,0.26,0.249,0.385,0.417l3.748,5.035h-1.776c-0.239,0-0.417-0.032-0.534-0.1c-0.118-0.066-0.215-0.164-0.295-0.293
			l-3.054-3.973c-0.1-0.129-0.213-0.223-0.337-0.278c-0.125-0.058-0.301-0.085-0.53-0.085h-0.634v4.729h-2.009V94.363h2.009V98.876z
			"/>
		<path fill="#004867" d="M26.175,103.511c0.389,0,0.736-0.065,1.042-0.194c0.307-0.129,0.565-0.309,0.777-0.542
			c0.212-0.232,0.373-0.517,0.486-0.849c0.111-0.331,0.167-0.702,0.167-1.114v-6.442h2.009v6.442c0,0.639-0.104,1.231-0.31,1.773
			c-0.207,0.542-0.504,1.012-0.892,1.405c-0.389,0.395-0.859,0.702-1.411,0.923c-0.553,0.221-1.175,0.331-1.868,0.331
			c-0.691,0-1.313-0.11-1.866-0.331c-0.553-0.221-1.022-0.528-1.407-0.923c-0.387-0.394-0.682-0.863-0.888-1.405
			c-0.208-0.542-0.311-1.135-0.311-1.773v-6.442h2.009v6.435c0,0.412,0.056,0.783,0.167,1.116c0.112,0.331,0.273,0.615,0.482,0.851
			c0.208,0.235,0.466,0.417,0.772,0.546C25.439,103.445,25.787,103.511,26.175,103.511z"/>
		<path fill="#004867" d="M34.71,103.474h4.324v1.65h-6.333V94.369h2.009V103.474z"/>
		<path fill="#004867" d="M46.717,94.369v1.645h-3.248v9.11H41.46v-9.11h-3.263v-1.645H46.717z"/>
		<path fill="#004867" d="M52.34,103.511c0.389,0,0.735-0.065,1.042-0.194c0.306-0.129,0.565-0.309,0.776-0.542
			c0.211-0.232,0.373-0.517,0.486-0.849c0.112-0.331,0.167-0.702,0.167-1.114v-6.442h2.009v6.442c0,0.639-0.104,1.231-0.31,1.773
			c-0.207,0.542-0.504,1.012-0.892,1.405c-0.388,0.395-0.859,0.702-1.411,0.923c-0.553,0.221-1.175,0.331-1.867,0.331
			s-1.314-0.11-1.867-0.331c-0.553-0.221-1.022-0.528-1.407-0.923c-0.386-0.394-0.682-0.863-0.888-1.405
			c-0.207-0.542-0.311-1.135-0.311-1.773v-6.442h2.009v6.435c0,0.412,0.056,0.783,0.168,1.116c0.111,0.331,0.272,0.615,0.482,0.851
			c0.208,0.235,0.466,0.417,0.772,0.546C51.605,103.445,51.952,103.511,52.34,103.511z"/>
		<path fill="#004867" d="M60.941,100.922v4.202h-2.008V94.369h3.293c0.737,0,1.367,0.077,1.893,0.228
			c0.525,0.151,0.956,0.363,1.292,0.637c0.335,0.271,0.582,0.599,0.739,0.978c0.156,0.38,0.235,0.797,0.235,1.253
			c0,0.362-0.054,0.704-0.161,1.027c-0.106,0.321-0.261,0.614-0.463,0.876c-0.202,0.263-0.45,0.495-0.747,0.692
			c-0.296,0.198-0.633,0.357-1.012,0.477c0.254,0.144,0.473,0.35,0.658,0.617l2.703,3.971h-1.807c-0.174,0-0.323-0.033-0.444-0.104
			c-0.123-0.068-0.226-0.168-0.311-0.297l-2.271-3.444c-0.084-0.129-0.178-0.221-0.279-0.275c-0.103-0.055-0.253-0.082-0.453-0.082
			H60.941z M60.941,99.487h1.255c0.378,0,0.708-0.047,0.99-0.142s0.513-0.224,0.694-0.39c0.181-0.166,0.317-0.363,0.407-0.593
			c0.09-0.227,0.134-0.479,0.134-0.75c0-0.546-0.18-0.965-0.541-1.258c-0.361-0.292-0.912-0.438-1.654-0.438h-1.285V99.487z"/>
		<path fill="#004867" d="M78.139,105.124h-1.553c-0.174,0-0.317-0.043-0.43-0.129c-0.111-0.086-0.193-0.195-0.242-0.324
			l-0.806-2.193h-4.473l-0.807,2.193c-0.04,0.115-0.118,0.219-0.235,0.313c-0.117,0.094-0.26,0.141-0.429,0.141h-1.561l4.241-10.755
			h2.054L78.139,105.124z M71.149,101.063h3.442l-1.314-3.576c-0.06-0.16-0.125-0.347-0.198-0.563s-0.143-0.449-0.212-0.703
			c-0.07,0.254-0.139,0.488-0.205,0.707c-0.067,0.218-0.134,0.409-0.199,0.572L71.149,101.063z"/>
		<path fill="#004867" d="M81.259,103.474h4.323v1.65h-6.331V94.369h2.008V103.474z"/>
		<path fill="#004867" d="M88.249,94.381c0.06,0.008,0.113,0.022,0.161,0.044c0.047,0.024,0.093,0.055,0.138,0.099
			c0.045,0.041,0.095,0.098,0.15,0.166l5.667,7.192c-0.02-0.173-0.034-0.343-0.041-0.51c-0.008-0.165-0.012-0.321-0.012-0.464
			v-6.539h1.77v10.755h-1.038c-0.158,0-0.291-0.024-0.395-0.074c-0.105-0.048-0.207-0.138-0.306-0.267l-5.645-7.163
			c0.014,0.159,0.025,0.315,0.033,0.474c0.007,0.154,0.011,0.298,0.011,0.427v6.604h-1.769V94.369h1.052
			C88.114,94.369,88.189,94.374,88.249,94.381z"/>
		<path fill="#004867" d="M108.62,99.747c0,0.789-0.132,1.518-0.396,2.191c-0.264,0.671-0.634,1.252-1.112,1.744
			c-0.478,0.491-1.053,0.873-1.725,1.147c-0.672,0.276-1.416,0.414-2.232,0.414c-0.817,0-1.563-0.138-2.237-0.414
			c-0.674-0.274-1.252-0.656-1.732-1.147c-0.48-0.492-0.852-1.073-1.116-1.744c-0.264-0.674-0.395-1.402-0.395-2.191
			c0-0.788,0.131-1.519,0.395-2.19s0.636-1.253,1.116-1.744c0.48-0.49,1.058-0.873,1.732-1.149c0.674-0.274,1.42-0.412,2.237-0.412
			c0.816,0,1.56,0.139,2.232,0.417s1.247,0.66,1.725,1.147c0.478,0.488,0.849,1.069,1.112,1.741S108.62,98.959,108.62,99.747z
			 M106.559,99.747c0-0.589-0.079-1.119-0.235-1.587c-0.157-0.47-0.382-0.867-0.676-1.193c-0.293-0.328-0.651-0.578-1.072-0.753
			c-0.42-0.172-0.895-0.259-1.422-0.259c-0.528,0-1.003,0.087-1.426,0.259c-0.423,0.175-0.783,0.425-1.08,0.753
			c-0.296,0.326-0.524,0.724-0.683,1.193c-0.159,0.468-0.239,0.998-0.239,1.587c0,0.591,0.08,1.12,0.239,1.589
			c0.159,0.469,0.387,0.864,0.683,1.19c0.296,0.324,0.657,0.573,1.08,0.747c0.423,0.172,0.898,0.26,1.426,0.26
			c0.527,0,1.002-0.088,1.422-0.26c0.42-0.174,0.778-0.423,1.072-0.747c0.293-0.326,0.519-0.722,0.676-1.19
			S106.559,100.338,106.559,99.747z"/>
		<path fill="#004867" d="M109.859,99.866h3.868v1.533h-3.868V99.866z"/>
		<path fill="#004867" d="M125.921,99.747c0,0.789-0.132,1.518-0.396,2.191c-0.264,0.671-0.635,1.252-1.113,1.744
			c-0.478,0.491-1.052,0.873-1.725,1.147c-0.672,0.276-1.416,0.414-2.232,0.414c-0.817,0-1.562-0.138-2.237-0.414
			c-0.675-0.274-1.252-0.656-1.732-1.147c-0.48-0.492-0.854-1.073-1.116-1.744c-0.264-0.674-0.396-1.402-0.396-2.191
			c0-0.788,0.132-1.519,0.396-2.19c0.263-0.672,0.636-1.253,1.116-1.744c0.48-0.49,1.058-0.873,1.732-1.149
			c0.675-0.274,1.42-0.412,2.237-0.412c0.816,0,1.56,0.139,2.232,0.417s1.247,0.66,1.725,1.147c0.478,0.488,0.85,1.069,1.113,1.741
			S125.921,98.959,125.921,99.747z M123.86,99.747c0-0.589-0.078-1.119-0.235-1.587c-0.157-0.47-0.382-0.867-0.676-1.193
			c-0.293-0.328-0.651-0.578-1.071-0.753c-0.421-0.172-0.896-0.259-1.422-0.259c-0.528,0-1.004,0.087-1.427,0.259
			c-0.423,0.175-0.782,0.425-1.078,0.753c-0.297,0.326-0.524,0.724-0.684,1.193c-0.16,0.468-0.238,0.998-0.238,1.587
			c0,0.591,0.079,1.12,0.238,1.589c0.159,0.469,0.387,0.864,0.684,1.19c0.296,0.324,0.655,0.573,1.078,0.747
			c0.423,0.172,0.899,0.26,1.427,0.26c0.526,0,1-0.088,1.422-0.26c0.42-0.174,0.777-0.423,1.071-0.747
			c0.294-0.326,0.52-0.722,0.676-1.19C123.782,100.867,123.86,100.338,123.86,99.747z"/>
		<path fill="#004867" d="M133.292,96.326c-0.055,0.108-0.119,0.187-0.191,0.229c-0.072,0.046-0.158,0.067-0.257,0.067
			c-0.1,0-0.212-0.037-0.336-0.115c-0.125-0.076-0.271-0.161-0.44-0.257c-0.17-0.093-0.368-0.178-0.594-0.256
			c-0.227-0.076-0.494-0.115-0.803-0.115c-0.278,0-0.521,0.033-0.728,0.1c-0.207,0.068-0.381,0.16-0.522,0.279
			c-0.142,0.12-0.248,0.262-0.317,0.428c-0.07,0.166-0.105,0.349-0.105,0.547c0,0.254,0.071,0.463,0.213,0.633
			c0.142,0.168,0.33,0.313,0.564,0.431c0.234,0.12,0.5,0.226,0.799,0.32c0.299,0.095,0.603,0.194,0.914,0.302
			c0.312,0.105,0.617,0.229,0.915,0.371c0.299,0.142,0.565,0.32,0.8,0.536c0.233,0.215,0.421,0.479,0.563,0.791
			c0.142,0.313,0.213,0.691,0.213,1.138c0,0.486-0.083,0.941-0.25,1.366c-0.167,0.423-0.411,0.793-0.732,1.108
			c-0.321,0.313-0.713,0.563-1.176,0.743c-0.463,0.182-0.993,0.271-1.591,0.271c-0.343,0-0.682-0.034-1.016-0.102
			c-0.333-0.066-0.653-0.161-0.959-0.285c-0.306-0.124-0.592-0.271-0.858-0.446c-0.267-0.174-0.504-0.367-0.713-0.58l0.583-0.96
			c0.054-0.068,0.12-0.128,0.197-0.175c0.077-0.046,0.163-0.071,0.258-0.071c0.124,0,0.259,0.052,0.403,0.153
			c0.144,0.102,0.314,0.214,0.511,0.338c0.197,0.125,0.428,0.238,0.694,0.339c0.266,0.102,0.586,0.152,0.959,0.152
			c0.573,0,1.016-0.135,1.33-0.406c0.313-0.27,0.47-0.656,0.47-1.163c0-0.283-0.071-0.513-0.213-0.691
			c-0.142-0.179-0.33-0.329-0.564-0.449c-0.234-0.121-0.5-0.226-0.799-0.31c-0.299-0.084-0.602-0.176-0.911-0.275
			c-0.309-0.099-0.613-0.218-0.911-0.357c-0.298-0.139-0.565-0.319-0.799-0.542c-0.234-0.225-0.421-0.502-0.564-0.836
			c-0.142-0.336-0.213-0.748-0.213-1.239c0-0.392,0.079-0.774,0.235-1.146s0.386-0.703,0.687-0.99
			c0.301-0.287,0.671-0.518,1.109-0.691c0.438-0.173,0.938-0.26,1.501-0.26c0.637,0,1.225,0.1,1.762,0.297
			c0.538,0.199,0.996,0.478,1.375,0.833L133.292,96.326z M133.709,91.803l-2.21,1.607c-0.055,0.041-0.106,0.071-0.153,0.097
			c-0.047,0.024-0.095,0.045-0.142,0.061c-0.048,0.014-0.097,0.024-0.149,0.029s-0.114,0.008-0.183,0.008h-1.449l1.464-1.503
			c0.059-0.06,0.116-0.109,0.168-0.148c0.052-0.04,0.105-0.07,0.16-0.094c0.056-0.021,0.118-0.037,0.187-0.043
			c0.069-0.009,0.155-0.014,0.254-0.014H133.709z"/>
		<path fill="#004867" d="M134.77,94.369h1.688c0.173,0,0.319,0.042,0.437,0.123c0.116,0.083,0.194,0.192,0.235,0.331l1.836,6.434
			c0.045,0.159,0.086,0.332,0.124,0.517c0.038,0.187,0.073,0.384,0.108,0.593c0.04-0.209,0.083-0.406,0.131-0.593
			c0.047-0.185,0.098-0.357,0.152-0.517l2.121-6.434c0.04-0.113,0.119-0.218,0.235-0.313c0.117-0.094,0.26-0.142,0.43-0.142h0.589
			c0.175,0,0.319,0.042,0.433,0.123c0.115,0.083,0.194,0.192,0.239,0.331l2.105,6.434c0.109,0.317,0.204,0.669,0.285,1.056
			c0.034-0.192,0.07-0.379,0.107-0.558c0.038-0.178,0.076-0.344,0.116-0.498l1.837-6.434c0.035-0.123,0.112-0.23,0.231-0.319
			c0.12-0.09,0.264-0.135,0.433-0.135h1.576l-3.353,10.755h-1.815l-2.359-7.348c-0.03-0.094-0.061-0.195-0.093-0.305
			c-0.033-0.109-0.064-0.226-0.093-0.35c-0.03,0.124-0.062,0.24-0.094,0.35c-0.032,0.109-0.063,0.211-0.093,0.305l-2.382,7.348
			h-1.814L134.77,94.369z"/>
		<path fill="#004867" d="M153.662,105.124h-2.017V94.369h2.017V105.124z"/>
		<path fill="#004867" d="M165.579,105.124h-1.553c-0.174,0-0.318-0.043-0.429-0.129c-0.113-0.086-0.194-0.195-0.243-0.324
			l-0.807-2.193h-4.473l-0.806,2.193c-0.04,0.115-0.118,0.219-0.235,0.313c-0.118,0.094-0.26,0.141-0.43,0.141h-1.56l4.241-10.755
			h2.054L165.579,105.124z M158.589,101.063h3.442l-1.314-3.576c-0.059-0.16-0.126-0.347-0.198-0.563
			c-0.072-0.216-0.143-0.449-0.213-0.703c-0.07,0.254-0.137,0.488-0.205,0.707c-0.067,0.218-0.133,0.409-0.198,0.572
			L158.589,101.063z"/>
		<path fill="#004867" d="M173.203,94.369v1.645h-3.249v9.11h-2.008v-9.11h-3.264v-1.645H173.203z"/>
		<path fill="#004867" d="M184.253,99.747c0,0.789-0.13,1.518-0.395,2.191c-0.262,0.671-0.635,1.252-1.113,1.744
			c-0.479,0.491-1.052,0.873-1.725,1.147c-0.671,0.276-1.415,0.414-2.232,0.414c-0.817,0-1.563-0.138-2.237-0.414
			c-0.674-0.274-1.251-0.656-1.732-1.147c-0.479-0.492-0.853-1.073-1.115-1.744c-0.265-0.674-0.397-1.402-0.397-2.191
			c0-0.788,0.132-1.519,0.397-2.19c0.263-0.672,0.636-1.253,1.115-1.744c0.48-0.49,1.058-0.873,1.732-1.149
			c0.674-0.274,1.42-0.412,2.237-0.412c0.817,0,1.561,0.139,2.232,0.417c0.673,0.278,1.247,0.66,1.725,1.147
			c0.478,0.488,0.851,1.069,1.113,1.741C184.123,98.229,184.253,98.959,184.253,99.747z M182.193,99.747
			c0-0.589-0.079-1.119-0.234-1.587c-0.159-0.47-0.383-0.867-0.677-1.193c-0.294-0.328-0.65-0.578-1.07-0.753
			c-0.423-0.172-0.896-0.259-1.423-0.259c-0.527,0-1.002,0.087-1.428,0.259c-0.422,0.175-0.782,0.425-1.077,0.753
			c-0.297,0.326-0.524,0.724-0.684,1.193c-0.16,0.468-0.238,0.998-0.238,1.587c0,0.591,0.078,1.12,0.238,1.589
			s0.387,0.864,0.684,1.19c0.295,0.324,0.655,0.573,1.077,0.747c0.426,0.172,0.901,0.26,1.428,0.26c0.527,0,1-0.088,1.423-0.26
			c0.42-0.174,0.776-0.423,1.07-0.747c0.294-0.326,0.518-0.722,0.677-1.19C182.115,100.867,182.193,100.338,182.193,99.747z"/>
		<path fill="#004867" d="M184.837,94.369h1.688c0.173,0,0.319,0.042,0.436,0.123c0.116,0.083,0.194,0.192,0.235,0.331l1.837,6.434
			c0.044,0.159,0.085,0.332,0.124,0.517c0.037,0.187,0.074,0.384,0.107,0.593c0.041-0.209,0.085-0.406,0.131-0.593
			c0.047-0.185,0.098-0.357,0.152-0.517l2.122-6.434c0.04-0.113,0.119-0.218,0.234-0.313c0.117-0.094,0.262-0.142,0.431-0.142h0.588
			c0.176,0,0.319,0.042,0.434,0.123c0.113,0.083,0.194,0.192,0.239,0.331l2.107,6.434c0.108,0.317,0.202,0.669,0.283,1.056
			c0.035-0.192,0.071-0.379,0.109-0.558c0.038-0.178,0.075-0.344,0.116-0.498l1.836-6.434c0.034-0.123,0.112-0.23,0.231-0.319
			c0.119-0.09,0.264-0.135,0.433-0.135h1.576l-3.353,10.755h-1.813l-2.36-7.348c-0.029-0.094-0.061-0.195-0.093-0.305
			c-0.033-0.109-0.063-0.226-0.095-0.35c-0.029,0.124-0.061,0.24-0.092,0.35c-0.033,0.109-0.064,0.211-0.095,0.305l-2.382,7.348
			h-1.814L184.837,94.369z"/>
		<path fill="#004867" d="M208.276,94.369v1.594h-4.785v2.981h3.769v1.539h-3.769v3.042h4.785v1.599h-6.81V94.369H208.276z"/>
	</g>
	<path fill="#004867" d="M65.969,51.264v12.411h-8.662c-3.278,0-5.926-0.629-7.947-1.879c-2.028-1.25-3.576-2.971-4.645-5.18
		l-8.481-17.677h-9.558v24.736H11.672V13.692H0V1.116h26.661v0.047h0.016v25.271h10.36c1.721,0,3.317-0.354,4.779-1.069
		c1.454-0.715,2.602-1.792,3.435-3.214c0.833-1.431,1.25-3.097,1.25-5.007V1.163h15.005v16.074c0,3.985-0.951,7.562-2.861,10.713
		c-1.902,3.16-4.401,5.691-7.499,7.593l6.783,14.289c0.181,0.472,0.496,0.834,0.943,1.069c0.448,0.236,0.936,0.362,1.47,0.362
		H65.969z"/>
	<path fill="#004867" d="M76.06,63.673V1.161h26.88c4.227,0,8.066,0.953,11.52,2.857c3.452,1.906,6.221,4.541,8.305,7.904
		c2.083,3.364,3.125,7.249,3.125,11.654c0,4.406-1.042,8.32-3.125,11.743c-2.084,3.424-4.853,6.087-8.305,7.993
		c-3.454,1.906-7.293,2.858-11.52,2.858H91.063v17.503H76.06z M91.063,33.578h10.181c1.726,0,3.318-0.386,4.778-1.161
		c1.458-0.773,2.634-1.905,3.527-3.394c0.893-1.487,1.339-3.273,1.339-5.358c0-2.083-0.446-3.869-1.339-5.358
		c-0.893-1.487-2.069-2.634-3.527-3.438c-1.459-0.803-3.052-1.205-4.778-1.205H91.063V33.578z"/>
	<path fill="#004867" d="M165.719,63.673c-3.81,0-7.159-0.849-10.045-2.545c-2.889-1.696-5.15-3.975-6.788-6.832
		c-1.638-2.858-2.456-6.042-2.456-9.555V13.664h-16.968V1.161h48.849v12.502h-16.878V46.08c0,1.371,0.476,2.561,1.429,3.572
		c0.952,1.013,2.143,1.518,3.573,1.518h4.912v12.503H165.719z"/>
	<path fill="#004867" d="M185.098,63.673V1.161h15.003v25.272h10.357c1.728,0,3.319-0.357,4.779-1.071
		c1.457-0.715,2.604-1.786,3.437-3.216c0.834-1.428,1.252-3.095,1.252-5V1.161h15.001v16.075c0,3.989-0.951,7.561-2.856,10.716
		c-1.907,3.156-4.407,5.686-7.502,7.59l6.786,14.289c0.18,0.477,0.491,0.834,0.938,1.072c0.446,0.239,0.938,0.357,1.474,0.357h5.626
		v12.414h-8.662c-3.275,0-5.925-0.625-7.948-1.876c-2.024-1.25-3.572-2.975-4.644-5.18l-8.483-17.682c-0.478,0-0.924,0-1.34,0
		s-0.863,0-1.339,0h-6.876v24.737H185.098z"/>
	<path fill="#004867" d="M314.991,0.149h-34.843V0.22C278.749,0.071,277.303,0,275.825,0c-5,0-9.526,0.817-13.574,2.453
		c-4.048,1.643-7.53,3.946-10.446,6.924c-2.916,2.979-5.164,6.414-6.743,10.313c-1.572,3.899-2.367,8.112-2.367,12.639
		s0.795,8.748,2.367,12.678c1.579,3.93,3.827,7.38,6.743,10.36c2.916,2.978,6.398,5.298,10.446,6.963
		c4.048,1.667,8.574,2.499,13.574,2.499c4.943,0,9.456-0.832,13.534-2.499c4.072-1.666,7.562-3.985,10.446-6.963
		c2.885-2.979,5.133-6.43,6.744-10.36c1.604-3.93,2.413-8.151,2.413-12.678s-0.81-8.74-2.413-12.639
		c-1.038-2.515-2.342-4.833-3.914-6.964h12.355V0.149z M292.622,40.141c-0.896,2.414-2.146,4.512-3.758,6.296
		c-1.604,1.784-3.521,3.167-5.761,4.15c-2.232,0.982-4.653,1.478-7.278,1.478c-2.673,0-5.117-0.495-7.317-1.478
		c-2.209-0.983-4.127-2.366-5.762-4.15c-1.635-1.785-2.885-3.883-3.75-6.296c-0.864-2.413-1.296-5.015-1.296-7.813
		c0-2.798,0.432-5.392,1.296-7.773c0.865-2.374,2.115-4.465,3.75-6.249s3.553-3.167,5.762-4.15c2.2-0.982,4.645-1.478,7.317-1.478
		c2.625,0,5.046,0.495,7.278,1.478c2.24,0.982,4.157,2.366,5.761,4.15c1.611,1.784,2.862,3.875,3.758,6.249
		c0.888,2.381,1.336,4.975,1.336,7.773C293.958,35.126,293.51,37.729,292.622,40.141z"/>
</g>
</svg>
